<svg xmlns="http://www.w3.org/2000/svg" viewBox="0 0 300 300">
	<path fill="#1d1d1b" d="M233.8 136.61c-4.07.22-7.96 1.77-11.06 4.42 1.12-12.9-3.66-22.46-12.51-25.77a23.193 23.193 0 0 0-16.58.73l-7.19-17.31c6.63-16.21 18.25-35.95 18.25-52.17 0-12.51-6.32-21.73-18.47-21.73-7.37 0-15.44 6.04-21.65 13.84C156.11 19.84 147.27 11 137.71 11c-15.11 0-21.37 15.12-21.37 27.99 0 10.68 2.93 28.37 14.38 53.43-8 17.47-14.89 35.43-20.64 53.77-9.19-9.57-24.3-19.15-43.45-19.15a44.39 44.39 0 0 0-25.04 7.02c-6.26 4.41-9.94 10.3-9.94 16.56 0 9.19 6.26 15.44 15.83 18.05 16.56 4.41 23.86 17.67 30.2 43.83 11.41 47.14 40.86 75.5 86.17 75.5 47.98-.08 86.84-38.96 86.9-86.94-.03-6.31-.64-12.6-1.84-18.8 1.39-3.59 2.5-7.29 3.31-11.05 4.04-20.24-3.68-34.6-18.42-34.6"/>
	<path fill="#fff" d="M206.47 125.52c7.69 3.57 8.28 19.57.55 38.72-6.26 18.43-15.27 29.69-23.67 29.75-6.61 0-12.14-4.69-12.14-17.21-.01-23.59 19.37-58.58 35.26-51.26m-79.46-86.53c0-7.72 3.31-16.93 10.7-16.93 5.14 0 11.39 8.1 18.77 24.3a196.917 196.917 0 0 0-19.54 32.02c-6.64-17.32-9.95-30.21-9.95-39.43"/>
	<path fill="#fff" d="M163.85 276.97c-38.66 0-65.18-26.9-75.5-67.05-7.02-27.63-15.83-46.03-38.3-51.94-2.57-.74-7.36-2.58-7.36-7.37 0-5.18 8.42-12.54 23.93-12.54 18.35 0 33.51 11.23 43.81 26.22l7.88-2.93c1.17-15.09 8.86-35.73 22.33-64.58 16.93-36.5 34.14-61.3 45.57-60.98 3.65.08 7.99 4.41 7.99 10.67 0 15.11-13.32 37.73-24.96 62.37-1.17 2.47-6.47 14.15-6.47 14.15l7.61 3.28c2.5-4.21 7.66-14.28 8.42-15.96l5.7 12.63c-12.14 10.33-22.83 34.62-22.83 53.79 0 14.04 6.26 22.73 15.44 25.68 8.42 2.6 16.56.1 22.83-7.27 1.49 8.86 7.37 16.49 18.78 16.49 10.11 0 16.72-5.8 21.75-15.75 1.82 46.41-36.5 81.04-76.61 81.04"/>
	<path fill="#fff" d="M242.22 169.76c-2.58 15.44-11.99 32.69-23.57 32.69-11.05 0-10.39-14.64-7.82-23.49 4.04-15.83 14.82-32.4 22.92-32.4 7.37 0 10.67 9.94 8.42 23.19"/>
	<path fill="#1d1d1b" d="M203.15 247.37c-32.79 18.61-63.28 6.72-74.8-27.23l9.53-4.46c9.38 27.66 36.39 35.24 61.39 22.22l3.88 9.47zm-8.93-70.96c.01 4.73-3.82 8.57-8.55 8.58-4.73.01-8.57-3.82-8.58-8.55-.01-4.73 3.82-8.57 8.55-8.58h.03c4.73 0 8.55 3.83 8.55 8.55m36.03 10.36c0 4.26-3.45 7.71-7.71 7.71s-7.71-3.45-7.71-7.71 3.45-7.71 7.71-7.71h.01c4.25 0 7.69 3.44 7.69 7.69.01.01.01.02.01.02M215.77 46.35c-1.05.01-2.09-.2-3.06-.6-.93-.39-1.77-.95-2.47-1.67a7.948 7.948 0 0 1-1.71-2.5c-.4-.97-.61-2.01-.6-3.06 0-1.05.2-2.1.6-3.07.39-.92.95-1.76 1.66-2.47.73-.72 1.6-1.29 2.55-1.67.97-.43 2.03-.64 3.09-.63 1.05-.01 2.1.21 3.06.63 1.85.79 3.33 2.28 4.1 4.14.41.97.62 2.02.62 3.07.01 1.05-.2 2.09-.62 3.06a8.03 8.03 0 0 1-1.64 2.5 7.633 7.633 0 0 1-5.62 2.27h.04zm0-1.5c.84.01 1.68-.15 2.46-.48a5.953 5.953 0 0 0 3.21-3.36c.62-1.59.62-3.36 0-4.96-.29-.75-.72-1.44-1.28-2.02a6.251 6.251 0 0 0-1.94-1.4 6.325 6.325 0 0 0-4.87 0c-.74.34-1.4.82-1.97 1.4-.56.58-.99 1.27-1.29 2.02-.6 1.6-.6 3.36 0 4.96.29.75.73 1.43 1.29 2.01.54.6 1.2 1.08 1.94 1.4.79.31 1.62.45 2.45.43zm-2.71-10.34h3.05c.44-.01.87.06 1.28.21.33.13.62.32.87.56.23.2.4.46.51.74.11.26.16.54.15.83.01.49-.12.98-.38 1.4-.28.43-.69.75-1.17.93l1.94 3.28h-1.71l-1.77-3.07h-1.26v3.05h-1.5v-7.93zm2.99 3.67c.37.02.73-.1 1.01-.34.22-.25.33-.57.31-.9.03-.33-.1-.65-.34-.88-.32-.21-.7-.31-1.08-.28h-1.4v2.4h1.5z"/>
</svg>